<?xml version="1.0" standalone="no"?><!DOCTYPE svg PUBLIC "-//W3C//DTD SVG 1.1//EN" "http://www.w3.org/Graphics/SVG/1.1/DTD/svg11.dtd"><svg t="1604154764002" class="icon" viewBox="0 0 1024 1024" version="1.1" xmlns="http://www.w3.org/2000/svg" p-id="5544" xmlns:xlink="http://www.w3.org/1999/xlink" width="200" height="200"><defs><style type="text/css"></style></defs>
<path fill="#606266" d="M256.580267 454.314667c0 27.374933 22.084267 49.4592 49.4592 49.4592 27.3408 0 49.425067-22.084267 49.425066-49.4592 0-27.3408-22.084267-49.425067-49.425066-49.425067-27.374933 0-49.4592 22.084267-49.4592 49.425067z m191.5904 0c0 27.374933 22.084267 49.4592 49.425066 49.4592 27.374933 0 49.4592-22.084267 49.4592-49.4592 0-27.3408-22.084267-49.425067-49.4592-49.425067-27.3408 0-49.425067 22.084267-49.425066 49.425067z m191.5904 0c0 27.374933 22.084267 49.4592 49.425066 49.4592 27.374933 0 49.4592-22.084267 49.4592-49.4592 0-27.3408-22.084267-49.425067-49.4592-49.425067-27.3408 0-49.425067 22.084267-49.425066 49.425067z" p-id="5545"></path><path fill="#606266" d="M503.773867 46.4896c251.0848 0 457.250133 184.081067 457.250133 412.433067 0 227.874133-206.267733 411.8528-457.250133 411.8528-25.634133 0-50.4832-1.911467-74.24-5.768534a26.8288 26.8288 0 0 0-17.066667 3.413334L273.339733 955.392a37.0688 37.0688 0 0 1-56.695466-31.4368v-130.9696a27.4432 27.4432 0 0 0-10.103467-21.845333c-101.512533-78.267733-160.017067-192.375467-160.017067-312.797867 0-227.874133 206.267733-411.8528 457.284267-411.8528z m-130.6624 759.125333c19.285333-12.117333 42.5984-16.930133 66.6624-14.0288 21.333333 3.413333 42.222933 5.0176 64 5.0176 211.797333 0 383.112533-152.7808 383.112533-337.681066 0-185.412267-171.2128-338.261333-383.112533-338.261334-211.831467 0-383.146667 152.7808-383.146667 337.681067 0 96.938667 47.5136 189.576533 131.3792 254.2592a101.649067 101.649067 0 0 1 38.741333 80.384v64.1024l82.363734-51.473067z" p-id="5546"></path></svg>