<?xml version="1.0" standalone="no"?><!DOCTYPE svg PUBLIC "-//W3C//DTD SVG 1.1//EN" "http://www.w3.org/Graphics/SVG/1.1/DTD/svg11.dtd"><svg t="1604496187974" class="icon" viewBox="0 0 1024 1024" version="1.1" xmlns="http://www.w3.org/2000/svg" p-id="4100" xmlns:xlink="http://www.w3.org/1999/xlink" width="200" height="200"><defs><style type="text/css"></style></defs><path d="M794.013467 384.882857c0-153.890926-126.252449-278.616602-282.010909-278.616602-155.7646 0-282.011932 124.726699-282.011932 278.616602 0 88.858794 42.24515 167.803797 107.793028 218.813564-117.542066 59.19724-200.277396 177.063695-209.441103 314.038346l42.180681 0c9.893324-128.268362 93.130074-241.833861 209.293747-286.98213 36.910655 17.539468 88.484264 32.745798 132.185578 32.745798 43.700291 0 84.918042-10.102079 121.831766-27.637454l28.931936-16.769942 23.431665-15.394618C751.773434 552.686654 794.013467 473.741651 794.013467 384.882857L794.013467 384.882857zM512.002558 618.10969c-130.394792 0-236.083903-104.420211-236.083903-233.246275 0-128.790248 105.689111-233.228879 236.083903-233.228879 130.389676 0 236.102323 104.437607 236.102323 233.228879C748.103858 513.690502 647.628492 618.10969 512.002558 618.10969L512.002558 618.10969zM750.582305 644.6256l-0.205685 0.293689c-4.604878-4.3951-10.750855-7.16212-17.622356-7.16212-14.184047 0-25.662473 5.393847-25.662473 19.573801 0 9.78997 5.661953 17.997909 13.703093 22.321378l-0.169869 0.252757c77.113285 55.109132 116.003014 138.553613 123.668601 237.82864l51.362808 0C888.283504 807.459199 833.150836 709.269899 750.582305 644.6256L750.582305 644.6256zM750.582305 644.6256" p-id="4101"></path></svg>