<?xml version="1.0" standalone="no"?><!DOCTYPE svg PUBLIC "-//W3C//DTD SVG 1.1//EN" "http://www.w3.org/Graphics/SVG/1.1/DTD/svg11.dtd"><svg t="1604154810320" class="icon" viewBox="0 0 1024 1024" version="1.1" xmlns="http://www.w3.org/2000/svg" p-id="6512" xmlns:xlink="http://www.w3.org/1999/xlink" width="200" height="200"><defs><style type="text/css"></style></defs>
<path d="M518.42953584 62a178.71428584 178.71428584 0 0 1 178.71428583 178.71428584v285.42857168a178.71428584 178.71428584 0 0 1-357.42857167 0V240.71428584A178.71428584 178.71428584 0 0 1 518.42953584 62z m0 64.28571416a114.42857168 114.42857168 0 0 0-114.42857168 114.42857168v285.42857168a114.42857168 114.42857168 0 0 0 228.85714336 0V240.71428584A114.42857168 114.42857168 0 0 0 518.42953584 126.28571416z" p-id="6513"></path><path d="M743.42953584 897.71428584h-192.85714336v-68.14285752A321.42857168 321.42857168 0 0 0 833.42953584 512a32.14285752 32.14285752 0 1 0-64.28571417 0 257.14285752 257.14285752 0 0 1-514.28571415 0 32.14285752 32.14285752 0 0 0-64.28571504 0 321.42857168 321.42857168 0 0 0 295.71428584 321.42857168v64.28571416h-192.85714248a32.14285752 32.14285752 0 0 0 0 64.28571416h450a32.14285752 32.14285752 0 0 0 0-64.28571416z" p-id="6514"></path></svg>