<?xml version="1.0" standalone="no"?><!DOCTYPE svg PUBLIC "-//W3C//DTD SVG 1.1//EN" "http://www.w3.org/Graphics/SVG/1.1/DTD/svg11.dtd"><svg class="icon" width="200px" height="187.20px" viewBox="0 0 1094 1024" version="1.1" xmlns="http://www.w3.org/2000/svg"><path d="M876.038412 633.862914c22.627221 0 40.87498 18.247759 40.87498 40.87498v100.727629h100.727629a40.87498 40.87498 0 1 1 0 81.74996h-100.727629v100.72763c0 22.627221-18.247759 40.87498-40.87498 40.87498h-0.729911a40.87498 40.87498 0 0 1-40.87498-40.87498v-100.72763h-99.997719a40.87498 40.87498 0 0 1-40.87498-40.87498c0-22.627221 18.247759-41.60489 40.87498-41.60489h99.997719v-99.997719c0-22.627221 18.977669-40.87498 41.604891-40.87498z m-185.397231-488.31003c110.946374 0 200.725348 89.778974 200.725348 200.725349s-89.778974 200.725348-200.725348 200.725348l2.335713-0.072991 14.306243 0.291964c9.488835 0.437946 18.977669 1.240848 28.612486 2.700669 13.138386 1.459821 27.006683 3.649552 40.14507 6.569193 7.299104 1.459821 14.598207 2.919641 21.89731 5.839283 10.218745 2.189731 19.70758 5.109373 29.196415 8.758924 13.138386 4.379462 25.546863 10.218745 37.955338 16.058028l2.919642 1.459821c-31.386145 5.839283-60.58256 16.058028-87.589243 30.656235-8.758924 5.109373-17.517849 10.948655-25.546863 16.787938-70.801305 49.633904-116.785657 132.113775-116.785657 225.5423 0 46.714263 12.408476 89.778974 32.845966 127.734313h-343.787779c-1.459821 0-3.649552 0-5.109372-0.72991a35.765608 35.765608 0 0 1-32.116056-32.116056c-0.72991-1.459821-0.72991-2.919641-0.72991-4.379462 0-13.868297 0.72991-27.736594 2.189731-41.604891 1.459821-13.138386 3.649552-27.006683 5.839283-40.145069a394.589539 394.589539 0 0 1 110.216464-204.374901l0.72991-0.72991 12.846422-12.992404c13.941288-13.211377 29.196414-24.962934 45.546407-35.91159 10.948655-7.299104 22.627221-13.868297 33.575876-20.43749 22.627221-12.408476 46.714263-22.627221 71.531215-30.656235 13.138386-3.649552 25.546863-7.299104 37.955339-9.488835 9.488835-2.189731 18.977669-3.649552 28.466504-4.379462 17.517849-2.84665 34.962706-4.306471 52.334573-4.379462a200.579366 200.579366 0 0 1-200.506376-200.725348c0-110.946374 89.778974-200.725348 200.725349-200.725349z m-230.651673 255.468626c6.569193 25.546863 15.109144 51.020734 30.656235 72.261125 12.627449 17.152893 36.495518 45.254442 58.392828 62.04238a441.15782 441.15782 0 0 0-282.475308 313.131544l-155.470907-5.109373h-2.189731a40.87498 40.87498 0 0 1-38.685249-40.87498 402.180607 402.180607 0 0 1 389.772132-401.450696z m24.087041-400.720787c72.261125 4.379462 136.493237 47.444173 167.879383 112.406195-13.868297 2.189731-27.736594 5.839283-40.87498 10.948656-83.209781 29.926325-149.923588 103.282316-156.200817 194.156155-1.459821 20.802445-1.459821 55.473187 5.109373 83.209781a200.798339 200.798339 0 0 1 24.087041-400.720787z" /></svg>