<?xml version="1.0" standalone="no"?><!DOCTYPE svg PUBLIC "-//W3C//DTD SVG 1.1//EN" "http://www.w3.org/Graphics/SVG/1.1/DTD/svg11.dtd"><svg class="icon" width="200px" height="200.00px" viewBox="0 0 1024 1024" version="1.1" xmlns="http://www.w3.org/2000/svg"><path d="M499.346286 519.753143c83.821714 0 161.865143 24.429714 228.205714 65.974857a237.494857 237.494857 0 0 0-158.939429 405.211429H108.617143a40.155429 40.155429 0 0 1-40.228572-40.228572 431.396571 431.396571 0 0 1 430.957715-430.957714zM756.297143 625.225143c22.820571 0 41.252571 18.432 41.252571 41.252571v100.352h100.425143a41.179429 41.179429 0 1 1 0 82.505143h-100.425143v100.352a41.252571 41.252571 0 0 1-82.505143 0v-100.425143H614.692571a41.179429 41.179429 0 1 1 0-82.505143h100.205715v-100.205714c0-22.893714 18.505143-41.325714 41.325714-41.325714zM499.419429 5.485714A257.097143 257.097143 0 0 1 756.297143 262.363429a257.170286 257.170286 0 0 1-256.877714 256.877714 257.170286 257.170286 0 0 1-256.877715-256.877714A257.097143 257.097143 0 0 1 499.419429 5.485714z" /></svg>